<svg xmlns="http://www.w3.org/2000/svg" xmlns:xlink="http://www.w3.org/1999/xlink" version="1.1" x="0px" y="0px" viewBox="0 0 1000 1250" style="enable-background:new 0 0 1000 1000;" xml:space="preserve"><style type="text/css">
	.st0{fill-rule:evenodd;clip-rule:evenodd;}
</style><g><path class="st0" d="M189.2,580h621.5c3.1,0,5.9-2.2,6.2-5.3c0.4-3.6-2.5-6.7-6.1-6.7H189.3c-3.1,0-5.9,2.2-6.2,5.3   C182.6,576.9,185.5,580,189.2,580L189.2,580z M189.2,432h621.5c3.1,0,5.9-2.2,6.2-5.3c0.4-3.6-2.5-6.7-6.1-6.7H189.3   c-3.1,0-5.9,2.2-6.2,5.3C182.6,428.9,185.5,432,189.2,432L189.2,432z"/></g></svg>