<svg version="1.1" id="Layer_1" xmlns="http://www.w3.org/2000/svg" xmlns:xlink="http://www.w3.org/1999/xlink" x="0px" y="0px"
	 width="100%" viewBox="0 0 292 221" enable-background="new 0 0 292 221" xml:space="preserve">
<path fill="#FFFFFF" opacity="1.000000" stroke="none" 
	d="
M209.000000,222.000000 
	C139.333344,222.000000 70.166687,222.000000 1.000019,222.000000 
	C1.000012,148.333344 1.000012,74.666702 1.000006,1.000038 
	C98.333305,1.000026 195.666611,1.000026 292.999939,1.000013 
	C292.999939,74.666634 292.999939,148.333267 292.999969,221.999939 
	C265.166656,222.000000 237.333328,222.000000 209.000000,222.000000 
M238.828568,196.992798 
	C239.054398,191.776947 237.036362,188.803909 231.109955,188.126373 
	C223.533524,187.260208 215.845749,187.204422 208.203552,187.152176 
	C204.852295,187.129288 202.722443,186.555435 202.654221,182.699493 
	C202.498383,173.890060 202.200394,165.083084 202.057861,156.273529 
	C202.043472,155.384521 202.613388,154.441833 203.051926,153.596588 
	C207.229401,145.544830 211.498077,137.539688 215.600708,129.450226 
	C216.915802,126.857124 217.814865,124.053017 218.951263,121.228668 
	C222.839417,123.104027 224.922958,125.102646 223.854767,129.327423 
	C223.531723,130.605164 224.581833,133.106857 225.679214,133.630386 
	C226.874161,134.200455 229.407562,133.649475 230.368301,132.643005 
	C231.926468,131.010696 232.678177,128.608582 233.397964,127.239670 
	C235.215149,127.506622 237.874374,128.649002 238.731339,127.852448 
	C240.124741,126.557259 241.085297,123.929382 240.917542,121.976608 
	C240.297562,114.759659 236.732452,109.179619 231.030518,106.626228 
	C234.002457,90.578445 236.821762,75.354897 239.749359,59.546562 
	C241.387711,60.888927 243.023529,62.167130 244.589920,63.525410 
	C247.948395,66.437683 252.777100,65.348854 254.259262,61.153526 
	C255.598633,57.362427 255.529999,53.627686 252.776505,50.326126 
	C250.217361,47.257614 248.016373,43.782154 245.045547,41.186497 
	C237.568420,34.653584 235.643524,27.199165 239.311661,17.908934 
	C240.708405,14.371413 241.354828,9.098503 237.535721,7.551559 
	C233.416885,5.883221 231.114456,10.748096 229.407471,14.026809 
	C226.539642,19.535233 224.513046,25.669367 216.712067,25.732689 
	C216.402908,25.735201 216.018921,25.890144 215.799240,26.105877 
	C213.454376,28.408535 211.247040,27.322084 208.595901,26.388245 
	C202.994629,24.415239 197.250031,22.674942 191.425446,21.572060 
	C187.621201,20.851727 186.355042,23.014494 188.517044,26.238976 
	C190.623886,29.381214 192.904938,32.914837 196.008530,34.783516 
	C204.675400,40.001881 207.236954,47.241356 206.181992,56.923065 
	C205.461563,63.534538 200.866760,68.909950 194.090637,69.094757 
	C189.273621,69.226143 184.345505,68.732292 179.658142,69.577606 
	C158.024734,73.478905 143.336792,86.629929 135.195724,106.377571 
	C130.751862,117.156975 128.597565,128.947815 126.055908,140.425400 
	C123.364853,152.577698 120.466927,164.349579 110.590195,173.122681 
	C100.845352,181.778625 89.867432,188.203735 77.437721,191.863144 
	C67.092033,194.909012 56.488384,197.070862 46.090519,199.954300 
	C44.181873,200.483582 42.711628,202.593796 41.039021,203.974258 
	C42.554737,205.773300 43.765259,208.595627 45.649891,209.157715 
	C49.538136,210.317368 53.820709,210.859558 57.879833,210.619690 
	C75.510826,209.577866 92.689911,205.415894 108.058403,197.088409 
	C122.876251,189.059296 136.546066,178.806686 150.245041,168.875427 
	C154.918823,165.487106 158.841141,168.270798 162.966705,168.467850 
	C164.110764,168.522491 165.646744,173.087936 165.947479,175.705124 
	C166.858917,183.636978 167.233582,191.629807 167.854538,199.595978 
	C168.427902,206.951569 172.813919,211.028412 180.226669,210.991592 
	C193.719513,210.924576 207.212173,210.801025 220.704575,210.666840 
	C228.419495,210.590134 230.084259,208.249054 227.829697,201.383652 
	C231.355255,200.130310 234.859619,198.884506 238.828568,196.992798 
z"/>
<path fill="#030303" opacity="1.000000" stroke="none" 
	d="
M238.596283,197.315735 
	C234.859619,198.884506 231.355255,200.130310 227.829697,201.383652 
	C230.084259,208.249054 228.419495,210.590134 220.704575,210.666840 
	C207.212173,210.801025 193.719513,210.924576 180.226669,210.991592 
	C172.813919,211.028412 168.427902,206.951569 167.854538,199.595978 
	C167.233582,191.629807 166.858917,183.636978 165.947479,175.705124 
	C165.646744,173.087936 164.110764,168.522491 162.966705,168.467850 
	C158.841141,168.270798 154.918823,165.487106 150.245041,168.875427 
	C136.546066,178.806686 122.876251,189.059296 108.058403,197.088409 
	C92.689911,205.415894 75.510826,209.577866 57.879833,210.619690 
	C53.820709,210.859558 49.538136,210.317368 45.649891,209.157715 
	C43.765259,208.595627 42.554737,205.773300 41.039024,203.974258 
	C42.711628,202.593796 44.181873,200.483582 46.090519,199.954300 
	C56.488384,197.070862 67.092033,194.909012 77.437721,191.863144 
	C89.867432,188.203735 100.845352,181.778625 110.590195,173.122681 
	C120.466927,164.349579 123.364853,152.577698 126.055908,140.425400 
	C128.597565,128.947815 130.751862,117.156975 135.195724,106.377571 
	C143.336792,86.629929 158.024734,73.478905 179.658142,69.577606 
	C184.345505,68.732292 189.273621,69.226143 194.090637,69.094757 
	C200.866760,68.909950 205.461563,63.534538 206.181992,56.923065 
	C207.236954,47.241356 204.675400,40.001881 196.008530,34.783516 
	C192.904938,32.914837 190.623886,29.381214 188.517044,26.238976 
	C186.355042,23.014494 187.621201,20.851727 191.425446,21.572060 
	C197.250031,22.674942 202.994629,24.415239 208.595901,26.388245 
	C211.247040,27.322084 213.454376,28.408535 215.799240,26.105877 
	C216.018921,25.890144 216.402908,25.735201 216.712067,25.732689 
	C224.513046,25.669367 226.539642,19.535233 229.407471,14.026809 
	C231.114456,10.748096 233.416885,5.883221 237.535721,7.551559 
	C241.354828,9.098503 240.708405,14.371413 239.311661,17.908934 
	C235.643524,27.199165 237.568420,34.653584 245.045547,41.186497 
	C248.016373,43.782154 250.217361,47.257614 252.776505,50.326126 
	C255.529999,53.627686 255.598633,57.362427 254.259262,61.153526 
	C252.777100,65.348854 247.948395,66.437683 244.589920,63.525410 
	C243.023529,62.167130 241.387711,60.888927 239.749359,59.546562 
	C236.821762,75.354897 234.002457,90.578445 231.030518,106.626228 
	C236.732452,109.179619 240.297562,114.759659 240.917542,121.976608 
	C241.085297,123.929382 240.124741,126.557259 238.731339,127.852448 
	C237.874374,128.649002 235.215149,127.506622 233.397964,127.239670 
	C232.678177,128.608582 231.926468,131.010696 230.368301,132.643005 
	C229.407562,133.649475 226.874161,134.200455 225.679214,133.630386 
	C224.581833,133.106857 223.531723,130.605164 223.854767,129.327423 
	C224.922958,125.102646 222.839417,123.104027 218.951263,121.228668 
	C217.814865,124.053017 216.915802,126.857124 215.600708,129.450226 
	C211.498077,137.539688 207.229401,145.544830 203.051926,153.596588 
	C202.613388,154.441833 202.043472,155.384521 202.057861,156.273529 
	C202.200394,165.083084 202.498383,173.890060 202.654221,182.699493 
	C202.722443,186.555435 204.852295,187.129288 208.203552,187.152176 
	C215.845749,187.204422 223.533524,187.260208 231.109955,188.126373 
	C237.036362,188.803909 239.054398,191.776947 238.596283,197.315735 
M229.885773,69.421135 
	C230.107849,66.961555 230.329910,64.501984 230.595627,61.559151 
	C228.685104,61.363403 226.949112,61.185532 226.079910,61.096474 
	C221.546738,73.860817 217.201035,86.097290 212.704391,98.758789 
	C214.707428,99.747284 217.448502,101.099991 221.612762,103.155045 
	C224.460953,91.670013 227.114044,80.971718 229.885773,69.421135 
M179.164154,171.883087 
	C179.752808,178.675232 180.378250,185.464478 180.917053,192.260574 
	C181.271362,196.729431 183.835129,197.521271 187.454102,197.016159 
	C187.991150,191.192001 189.043106,185.882370 188.808380,180.630264 
	C188.569077,175.275803 187.064728,169.977859 186.137833,164.787216 
	C180.768234,164.496078 179.679947,167.454926 179.164154,171.883087 
M201.044678,113.251366 
	C199.526993,114.948639 198.009308,116.645920 196.184387,118.686768 
	C199.026978,120.957764 201.535156,122.961594 204.158997,125.057823 
	C206.587830,122.267563 208.631454,119.919815 210.861786,117.357597 
	C209.139297,116.436752 207.709000,115.614616 206.228180,114.896660 
	C204.754425,114.182129 203.229935,113.572212 201.044678,113.251366 
z"/>
<path fill="#F5F5F5" opacity="1.000000" stroke="none" 
	d="
M229.826447,69.847282 
	C227.114044,80.971718 224.460953,91.670013 221.612762,103.155045 
	C217.448502,101.099991 214.707428,99.747284 212.704391,98.758789 
	C217.201035,86.097290 221.546738,73.860817 226.079910,61.096474 
	C226.949112,61.185532 228.685104,61.363403 230.595627,61.559151 
	C230.329910,64.501984 230.107849,66.961555 229.826447,69.847282 
z"/>
<path fill="#F4F4F4" opacity="1.000000" stroke="none" 
	d="
M179.189392,171.451447 
	C179.679947,167.454926 180.768234,164.496078 186.137833,164.787216 
	C187.064728,169.977859 188.569077,175.275803 188.808380,180.630264 
	C189.043106,185.882370 187.991150,191.192001 187.454102,197.016159 
	C183.835129,197.521271 181.271362,196.729431 180.917053,192.260574 
	C180.378250,185.464478 179.752808,178.675232 179.189392,171.451447 
z"/>
<path fill="#F4F4F4" opacity="1.000000" stroke="none" 
	d="
M201.386185,113.083893 
	C203.229935,113.572212 204.754425,114.182129 206.228180,114.896660 
	C207.709000,115.614616 209.139297,116.436752 210.861786,117.357597 
	C208.631454,119.919815 206.587830,122.267563 204.158997,125.057823 
	C201.535156,122.961594 199.026978,120.957764 196.184387,118.686768 
	C198.009308,116.645920 199.526993,114.948639 201.386185,113.083893 
z"/>
</svg>